<?xml version="1.0" encoding="UTF-8" standalone="no"?>
<!-- Created with Inkscape (http://www.inkscape.org/) -->

<svg
   xmlns:dc="http://purl.org/dc/elements/1.1/"
   xmlns:cc="http://creativecommons.org/ns#"
   xmlns:rdf="http://www.w3.org/1999/02/22-rdf-syntax-ns#"
   xmlns:svg="http://www.w3.org/2000/svg"
   xmlns="http://www.w3.org/2000/svg"
   xmlns:sodipodi="http://sodipodi.sourceforge.net/DTD/sodipodi-0.dtd"
   xmlns:inkscape="http://www.inkscape.org/namespaces/inkscape"
   width="840"
   height="800"
   viewBox="0 0 222.24999 211.66667"
   version="1.1"
   id="svg8"
   inkscape:export-filename="/home/jan/remote/streamlips-apology-generator/img/background.png"
   inkscape:export-xdpi="96"
   inkscape:export-ydpi="96"
   inkscape:version="0.92.5 (2060ec1f9f, 2020-04-08)"
   sodipodi:docname="background.svg">
  <defs
     id="defs2">
    <clipPath
       clipPathUnits="userSpaceOnUse"
       id="clipPath864">
      <g
         id="g870">
        <path
           inkscape:connector-curvature="0"
           id="path866"
           d="m 240.49899,191.96097 a 44.22625,43.816755 64.617209 0 0 -58.54594,-21.16676 44.22625,43.816755 64.617209 0 0 -3.68728,2.02154 L 75.417527,221.61383 A 58.558837,60.196846 64.617209 0 0 72.787808,214.87498 58.558837,60.196846 64.617209 0 0 -6.7018235,187.78375 58.558837,60.196846 64.617209 0 0 -35.978764,266.49352 58.558837,60.196846 64.617209 0 0 -2.5431316e-6,297 58.558837,60.196846 64.617209 0 0 0.88438346,344.18736 58.558837,60.196846 64.617209 0 0 80.370853,371.28629 l 0.01021,-0.005 a 58.558837,60.196846 64.617209 0 0 32.608457,-69.5903 l 110.10471,-52.24103 -0.17111,-0.36066 a 44.22625,43.816755 64.617209 0 0 17.57584,-57.12847 z"
           style="opacity:1;fill:#d0b6ff;fill-opacity:1;stroke:none;stroke-width:1.91979861;stroke-linecap:round;stroke-linejoin:miter;stroke-miterlimit:4;stroke-dasharray:none;stroke-opacity:1" />
        <path
           style="opacity:1;fill:#d0b6ff;fill-opacity:1;stroke:none;stroke-width:1.18476641;stroke-linecap:round;stroke-linejoin:miter;stroke-miterlimit:4;stroke-dasharray:none;stroke-opacity:1"
           d="m 234.16816,133.97583 a 27.040659,27.293371 12.151364 0 0 -20.69291,-32.37049 27.040659,27.293371 12.151364 0 0 -2.56453,-0.39703 L 142.23204,86.420461 a 37.149314,36.138449 12.151364 0 0 1.24672,-4.286567 37.149314,36.138449 12.151364 0 0 -28.71484,-43.144152 37.149314,36.138449 12.151364 0 0 -43.920585,27.511423 37.149314,36.138449 12.151364 0 0 6.137502,28.456405 37.149314,36.138449 12.151364 0 0 -17.308565,23.42499 37.149314,36.138449 12.151364 0 0 28.710394,43.14672 l 0.0066,0.001 a 37.149314,36.138449 12.151364 0 0 42.122254,-21.79596 l 73.52431,15.8312 0.0519,-0.24083 a 27.040659,27.293371 12.151364 0 0 30.08024,-21.34935 z"
           id="path868"
           inkscape:connector-curvature="0" />
      </g>
    </clipPath>
  </defs>
  <sodipodi:namedview
     id="base"
     pagecolor="#ffffff"
     bordercolor="#666666"
     borderopacity="1.0"
     inkscape:pageopacity="0.0"
     inkscape:pageshadow="2"
     inkscape:zoom="0.35"
     inkscape:cx="351.42857"
     inkscape:cy="608.57143"
     inkscape:document-units="mm"
     inkscape:current-layer="layer1"
     showgrid="false"
     units="px"
     inkscape:window-width="939"
     inkscape:window-height="1020"
     inkscape:window-x="967"
     inkscape:window-y="46"
     inkscape:window-maximized="0" />
  <metadata
     id="metadata5">
    <rdf:RDF>
      <cc:Work
         rdf:about="">
        <dc:format>image/svg+xml</dc:format>
        <dc:type
           rdf:resource="http://purl.org/dc/dcmitype/StillImage" />
        <dc:title></dc:title>
      </cc:Work>
    </rdf:RDF>
  </metadata>
  <g
     inkscape:label="Layer 1"
     inkscape:groupmode="layer"
     id="layer1"
     transform="translate(0,-85.333317)">
    <rect
       y="70.214264"
       x="-17.280787"
       height="245.68452"
       width="243.9604"
       id="rect852"
       style="opacity:1;fill:#c4a9ff;fill-opacity:1;stroke:none;stroke-width:2.02070165;stroke-linecap:round;stroke-linejoin:miter;stroke-miterlimit:4;stroke-dasharray:none;stroke-opacity:1"
       inkscape:export-xdpi="96"
       inkscape:export-ydpi="96" />
    <rect
       style="opacity:1;fill:#b899ff;fill-opacity:1;stroke:none;stroke-width:1.74705315;stroke-linecap:round;stroke-linejoin:miter;stroke-miterlimit:4;stroke-dasharray:none;stroke-opacity:1"
       id="rect815"
       width="211.66667"
       height="211.66667"
       x="-2.5431316e-06"
       y="85.333313"
       clip-path="url(#clipPath864)"
       transform="matrix(1.1403509,0,0,1.1403509,-14.694655,-27.095653)"
       inkscape:export-xdpi="96"
       inkscape:export-ydpi="96" />
  </g>
</svg>
