<?xml version="1.0" encoding="UTF-8" standalone="no"?>
<!-- Created with Inkscape (http://www.inkscape.org/) -->

<svg
   xmlns:dc="http://purl.org/dc/elements/1.1/"
   xmlns:cc="http://creativecommons.org/ns#"
   xmlns:rdf="http://www.w3.org/1999/02/22-rdf-syntax-ns#"
   xmlns:svg="http://www.w3.org/2000/svg"
   xmlns="http://www.w3.org/2000/svg"
   xmlns:sodipodi="http://sodipodi.sourceforge.net/DTD/sodipodi-0.dtd"
   xmlns:inkscape="http://www.inkscape.org/namespaces/inkscape"
   width="1200"
   height="675"
   viewBox="0 0 317.5 178.59375"
   version="1.1"
   id="svg8"
   inkscape:version="0.92.5 (2060ec1f9f, 2020-04-08)"
   sodipodi:docname="preview-image.svg"
   inkscape:export-filename="/home/jan/remote/streamlips-apology-generator/img/preview-image.png"
   inkscape:export-xdpi="96"
   inkscape:export-ydpi="96">
  <defs
     id="defs2">
    <clipPath
       clipPathUnits="userSpaceOnUse"
       id="clipPath864">
      <g
         id="g870">
        <path
           inkscape:connector-curvature="0"
           id="path866"
           d="m 240.49899,191.96097 a 44.22625,43.816755 64.617209 0 0 -58.54594,-21.16676 44.22625,43.816755 64.617209 0 0 -3.68728,2.02154 L 75.417527,221.61383 A 58.558837,60.196846 64.617209 0 0 72.787808,214.87498 58.558837,60.196846 64.617209 0 0 -6.7018235,187.78375 58.558837,60.196846 64.617209 0 0 -35.978764,266.49352 58.558837,60.196846 64.617209 0 0 -2.5431316e-6,297 58.558837,60.196846 64.617209 0 0 0.88438346,344.18736 58.558837,60.196846 64.617209 0 0 80.370853,371.28629 l 0.01021,-0.005 a 58.558837,60.196846 64.617209 0 0 32.608457,-69.5903 l 110.10471,-52.24103 -0.17111,-0.36066 a 44.22625,43.816755 64.617209 0 0 17.57584,-57.12847 z"
           style="opacity:1;fill:#d0b6ff;fill-opacity:1;stroke:none;stroke-width:1.91979861;stroke-linecap:round;stroke-linejoin:miter;stroke-miterlimit:4;stroke-dasharray:none;stroke-opacity:1" />
        <path
           style="opacity:1;fill:#d0b6ff;fill-opacity:1;stroke:none;stroke-width:1.18476641;stroke-linecap:round;stroke-linejoin:miter;stroke-miterlimit:4;stroke-dasharray:none;stroke-opacity:1"
           d="m 234.16816,133.97583 a 27.040659,27.293371 12.151364 0 0 -20.69291,-32.37049 27.040659,27.293371 12.151364 0 0 -2.56453,-0.39703 L 142.23204,86.420461 a 37.149314,36.138449 12.151364 0 0 1.24672,-4.286567 37.149314,36.138449 12.151364 0 0 -28.71484,-43.144152 37.149314,36.138449 12.151364 0 0 -43.920585,27.511423 37.149314,36.138449 12.151364 0 0 6.137502,28.456405 37.149314,36.138449 12.151364 0 0 -17.308565,23.42499 37.149314,36.138449 12.151364 0 0 28.710394,43.14672 l 0.0066,0.001 a 37.149314,36.138449 12.151364 0 0 42.122254,-21.79596 l 73.52431,15.8312 0.0519,-0.24083 a 27.040659,27.293371 12.151364 0 0 30.08024,-21.34935 z"
           id="path868"
           inkscape:connector-curvature="0" />
      </g>
    </clipPath>
  </defs>
  <sodipodi:namedview
     id="base"
     pagecolor="#ffffff"
     bordercolor="#666666"
     borderopacity="1.0"
     inkscape:pageopacity="0.0"
     inkscape:pageshadow="2"
     inkscape:zoom="0.7"
     inkscape:cx="342.59899"
     inkscape:cy="421.58004"
     inkscape:document-units="px"
     inkscape:current-layer="layer1"
     showgrid="false"
     fit-margin-top="0"
     fit-margin-left="0"
     fit-margin-right="0"
     fit-margin-bottom="0"
     showguides="true"
     inkscape:guide-bbox="true"
     units="px"
     inkscape:window-width="1892"
     inkscape:window-height="1020"
     inkscape:window-x="1934"
     inkscape:window-y="46"
     inkscape:window-maximized="0" />
  <metadata
     id="metadata5">
    <rdf:RDF>
      <cc:Work
         rdf:about="">
        <dc:format>image/svg+xml</dc:format>
        <dc:type
           rdf:resource="http://purl.org/dc/dcmitype/StillImage" />
        <dc:title></dc:title>
      </cc:Work>
    </rdf:RDF>
  </metadata>
  <g
     inkscape:label="Layer 1"
     inkscape:groupmode="layer"
     id="layer1"
     transform="translate(77.863091,-87.506699)">
    <rect
       y="11.359185"
       x="-101.94746"
       height="349.22061"
       width="346.76993"
       id="rect852"
       style="opacity:1;fill:#c4f8ff;fill-opacity:1;stroke:none;stroke-width:2.87226343;stroke-linecap:round;stroke-linejoin:miter;stroke-miterlimit:4;stroke-dasharray:none;stroke-opacity:1"
       inkscape:export-xdpi="96"
       inkscape:export-ydpi="96"
       clip-path="none" />
    <rect
       style="opacity:1;fill:#4bddff;fill-opacity:1;stroke:none;stroke-width:1.74705315;stroke-linecap:round;stroke-linejoin:miter;stroke-miterlimit:4;stroke-dasharray:none;stroke-opacity:1"
       id="rect815"
       width="211.66667"
       height="211.66667"
       x="-2.5431316e-06"
       y="85.333313"
       clip-path="url(#clipPath864)"
       transform="matrix(1.6209163,0,0,1.6209163,-98.271493,-126.95897)"
       inkscape:export-xdpi="96"
       inkscape:export-ydpi="96" />
    <flowRoot
       xml:space="preserve"
       id="flowRoot920"
       style="font-style:normal;font-variant:normal;font-weight:normal;font-stretch:normal;font-size:40px;line-height:1.25;font-family:Convection;-inkscape-font-specification:Convection;letter-spacing:0px;word-spacing:0px;fill:#000000;fill-opacity:1;stroke:none"
       transform="matrix(0.29147738,0,0,0.29147738,3.0780098,-67.510227)"><flowRegion
         id="flowRegion922"><rect
           id="rect924"
           width="1347.5435"
           height="791.95959"
           x="-296.98486"
           y="-18.95269" /></flowRegion><flowPara
         id="flowPara926" /></flowRoot>    <rect
       ry="2.9999995"
       rx="2.9999995"
       y="129.86269"
       x="43.704021"
       height="57.345596"
       width="73.251678"
       id="rect828"
       style="opacity:1;fill:#9955ff;fill-opacity:1;stroke:#303030;stroke-width:3.55732965;stroke-linecap:round;stroke-linejoin:miter;stroke-miterlimit:4;stroke-dasharray:none;stroke-opacity:1" />
    <path
       style="opacity:1;fill:#ffffff;fill-opacity:1;stroke:#303030;stroke-width:3.55732965;stroke-linecap:round;stroke-linejoin:miter;stroke-miterlimit:4;stroke-dasharray:none;stroke-opacity:1"
       id="path840"
       sodipodi:type="arc"
       sodipodi:cx="96.032707"
       sodipodi:cy="147.63466"
       sodipodi:rx="10.625686"
       sodipodi:ry="10.625686"
       sodipodi:start="0"
       sodipodi:end="6.2829933"
       sodipodi:open="true"
       d="M 106.65839,147.63466 A 10.625686,10.625686 0 0 1 96.033217,158.26034 10.625686,10.625686 0 0 1 85.407022,147.63568 10.625686,10.625686 0 0 1 96.031177,137.00897 10.625686,10.625686 0 0 1 106.65839,147.63262" />
    <path
       d="m 96.993109,146.00201 a 2.5931301,2.5931301 0 0 1 -2.593006,2.59313 2.5931301,2.5931301 0 0 1 -2.593254,-2.59288 2.5931301,2.5931301 0 0 1 2.592756,-2.59338 2.5931301,2.5931301 0 0 1 2.593504,2.59264"
       sodipodi:open="true"
       sodipodi:end="6.2829933"
       sodipodi:start="0"
       sodipodi:ry="2.5931301"
       sodipodi:rx="2.5931301"
       sodipodi:cy="146.00201"
       sodipodi:cx="94.399979"
       sodipodi:type="arc"
       id="path842"
       style="opacity:1;fill:#303030;fill-opacity:1;stroke:none;stroke-width:1.22960365;stroke-linecap:round;stroke-linejoin:miter;stroke-miterlimit:4;stroke-dasharray:none;stroke-opacity:1" />
    <path
       d="m 75.479745,147.25052 a 12.293359,12.293359 0 0 1 -12.292769,12.29336 12.293359,12.293359 0 0 1 -12.293949,-12.29218 12.293359,12.293359 0 0 1 12.291589,-12.29454 12.293359,12.293359 0 0 1 12.295129,12.291"
       sodipodi:open="true"
       sodipodi:end="6.2829933"
       sodipodi:start="0"
       sodipodi:ry="12.293359"
       sodipodi:rx="12.293359"
       sodipodi:cy="147.25052"
       sodipodi:cx="63.186386"
       sodipodi:type="arc"
       id="path838"
       style="opacity:1;fill:#ffffff;fill-opacity:1;stroke:#303030;stroke-width:3.55732965;stroke-linecap:round;stroke-linejoin:miter;stroke-miterlimit:4;stroke-dasharray:none;stroke-opacity:1" />
    <path
       d="m 69.140983,152.91705 a 2.4010463,2.4010463 0 0 1 -2.400931,2.40105 2.4010463,2.4010463 0 0 1 -2.401161,-2.40082 2.4010463,2.4010463 0 0 1 2.4007,-2.40127 2.4010463,2.4010463 0 0 1 2.401392,2.40058"
       sodipodi:open="true"
       sodipodi:end="6.2829933"
       sodipodi:start="0"
       sodipodi:ry="2.4010463"
       sodipodi:rx="2.4010463"
       sodipodi:cy="152.91705"
       sodipodi:cx="66.739937"
       sodipodi:type="arc"
       id="path844"
       style="opacity:1;fill:#303030;fill-opacity:1;stroke:none;stroke-width:3.55732965;stroke-linecap:round;stroke-linejoin:miter;stroke-miterlimit:4;stroke-dasharray:none;stroke-opacity:1" />
    <path
       inkscape:connector-curvature="0"
       id="rect846"
       d="m 70.736958,163.93105 c -0.249301,0 -0.498538,0.0565 -0.689551,0.16968 l -3.051631,1.80882 c -0.382026,0.22624 -0.382026,0.59074 0,0.81741 l 9.431556,5.59037 -9.431556,5.59031 c -0.382026,0.22624 -0.382026,0.59073 0,0.8174 l 3.051631,1.80877 c 0.382026,0.22624 0.997082,0.22624 1.379088,0 l 9.431727,-5.59037 9.431557,5.59037 c 0.382026,0.22624 0.997081,0.22624 1.379088,0 l 3.051632,-1.80877 c 0.382025,-0.22623 0.382025,-0.59072 0,-0.8174 l -9.431726,-5.59031 9.431726,-5.59037 c 0.382025,-0.22624 0.382025,-0.59073 0,-0.81741 l -3.051632,-1.80882 c -0.382026,-0.22624 -0.997075,-0.22624 -1.379088,0 l -9.431557,5.59031 -9.431727,-5.59031 c -0.190981,-0.11312 -0.440281,-0.16968 -0.689537,-0.16968 z"
       style="opacity:1;fill:#303030;fill-opacity:1;stroke:none;stroke-width:0.56257272;stroke-linecap:round;stroke-linejoin:miter;stroke-miterlimit:4;stroke-dasharray:none;stroke-opacity:1" />
    <rect
       ry="14.999999"
       rx="14.999999"
       y="138.23058"
       x="25.019886"
       height="23.495056"
       width="15.000689"
       id="rect865"
       style="opacity:1;fill:#303030;fill-opacity:1;stroke:#303030;stroke-width:3.34708476;stroke-linecap:round;stroke-linejoin:miter;stroke-miterlimit:4;stroke-dasharray:none;stroke-opacity:1" />
    <rect
       style="opacity:1;fill:#303030;fill-opacity:1;stroke:#303030;stroke-width:3.55732965;stroke-linecap:round;stroke-linejoin:miter;stroke-miterlimit:4;stroke-dasharray:none;stroke-opacity:1"
       id="rect867"
       width="15.942947"
       height="24.970881"
       x="120.70587"
       y="134.99557"
       rx="14.999999"
       ry="14.999999" />
    <path
       inkscape:connector-curvature="0"
       id="rect890"
       d="m 40.740272,121.00257 c -4.221927,0.098 -7.542151,3.57543 -7.444378,7.79738 l 0.349681,15.09941 c 0.06574,2.83902 1.660922,5.26856 3.981887,6.52693 l -0.476561,-20.57823 c -0.04908,-2.11915 1.617506,-3.86476 3.73668,-3.91384 l 78.403789,-1.81574 c 2.11917,-0.0503 3.86478,1.61753 3.91385,3.73668 l 0.47654,20.57824 c 2.26023,-1.36452 3.74122,-3.86526 3.67547,-6.70428 l -0.34967,-15.09941 c -0.0978,-4.22195 -3.57542,-7.54216 -7.79735,-7.44438 z"
       style="opacity:1;fill:#303030;fill-opacity:1;stroke:#303030;stroke-width:3.55732965;stroke-linecap:round;stroke-linejoin:miter;stroke-miterlimit:4;stroke-dasharray:none;stroke-opacity:1" />
    <path
       inkscape:connector-curvature="0"
       d="m 136.83217,144.80978 c 0.0295,0.64735 -0.11777,1.27415 -0.2339,1.90573 -0.0565,0.51846 -0.17188,1.02617 -0.25835,1.53954 -0.0333,0.55051 -0.12248,1.08248 -0.25364,1.6174 -0.11896,0.54109 -0.20229,1.08965 -0.35475,1.62237 -0.16157,0.49521 -0.3107,0.99368 -0.46775,1.49021 -0.16917,0.4795 -0.37171,0.94636 -0.54453,1.42441 -0.16987,0.44179 -0.32145,0.88735 -0.52292,1.31626 -0.17578,0.37015 -0.33364,0.74658 -0.54812,1.09643 -0.19645,0.35632 -0.4039,0.70655 -0.64901,1.03139 -0.19689,0.20864 -0.411,0.40094 -0.63736,0.57627 0,0 -2.66055,1.02869 -2.66055,1.02869 v 0 c 0.25898,-0.11941 0.4619,-0.3205 0.66977,-0.51155 0.3107,-0.24257 0.46781,-0.63271 0.6783,-0.95924 0.17628,-0.36827 0.43551,-0.69756 0.56427,-1.0931 0.1125,-0.21241 0.23906,-0.43928 0.31811,-0.66715 0.071,-0.20424 0.0855,-0.42985 0.21657,-0.61335 0.15685,-0.4795 0.36342,-0.94203 0.55025,-1.41052 0.13065,-0.50778 0.33992,-0.99463 0.47196,-1.50372 0.19067,-0.51469 0.2459,-1.06897 0.36707,-1.6027 0.0616,-0.26709 0.16213,-0.54171 0.20116,-0.81264 0.0371,-0.25639 10e-4,-0.52348 0.0553,-0.77931 0.0685,-0.52224 0.21838,-1.02769 0.2684,-1.55312 0.10545,-0.61335 0.297,-1.21885 0.22888,-1.84741 0,0 2.54106,-1.29477 2.54106,-1.29477 z"
       id="path910"
       style="opacity:1;fill:#4d4d4d;fill-opacity:1;stroke:none;stroke-width:3.55732965;stroke-linecap:round;stroke-linejoin:miter;stroke-miterlimit:4;stroke-dasharray:none;stroke-opacity:1" />
    <text
       xml:space="preserve"
       style="font-style:normal;font-variant:normal;font-weight:normal;font-stretch:normal;font-size:31.97327805px;line-height:36.25;font-family:Convection;-inkscape-font-specification:Convection;letter-spacing:0px;word-spacing:0px;fill:#303030;fill-opacity:1;stroke:none;stroke-width:0.33305496"
       x="-5.5642776"
       y="219.53094"
       id="text844"><tspan
         sodipodi:role="line"
         id="tspan842"
         x="-5.5642776"
         y="219.53094"
         style="font-style:normal;font-variant:normal;font-weight:normal;font-stretch:normal;font-family:'simply rounded';-inkscape-font-specification:'simply rounded';fill:#303030;fill-opacity:1;stroke-width:0.33305496">STREAMLIPS</tspan></text>
    <text
       id="text917"
       y="238.3161"
       x="-4.7847662"
       style="font-style:normal;font-variant:normal;font-weight:normal;font-stretch:normal;font-size:16.3678894px;line-height:36.25;font-family:Convection;-inkscape-font-specification:Convection;letter-spacing:0px;word-spacing:0px;fill:#303030;fill-opacity:1;stroke:none;stroke-width:0.30320615"
       xml:space="preserve"><tspan
         style="font-style:normal;font-variant:normal;font-weight:normal;font-stretch:normal;font-family:Arial-Rounded;-inkscape-font-specification:Arial-Rounded;fill:#303030;fill-opacity:1;stroke-width:0.30320615"
         y="238.3161"
         x="-4.7847662"
         id="tspan915"
         sodipodi:role="line">Lip services for streamers</tspan></text>
  </g>
</svg>
