<?xml version="1.0" encoding="UTF-8" standalone="no"?>
<!-- Created with Inkscape (http://www.inkscape.org/) -->

<svg
   xmlns:dc="http://purl.org/dc/elements/1.1/"
   xmlns:cc="http://creativecommons.org/ns#"
   xmlns:rdf="http://www.w3.org/1999/02/22-rdf-syntax-ns#"
   xmlns:svg="http://www.w3.org/2000/svg"
   xmlns="http://www.w3.org/2000/svg"
   xmlns:sodipodi="http://sodipodi.sourceforge.net/DTD/sodipodi-0.dtd"
   xmlns:inkscape="http://www.inkscape.org/namespaces/inkscape"
   width="1200"
   height="675"
   viewBox="0 0 317.5 178.59375"
   version="1.1"
   id="svg8"
   inkscape:version="0.92.5 (2060ec1f9f, 2020-04-08)"
   sodipodi:docname="preview-image.svg">
  <defs
     id="defs2">
    <clipPath
       clipPathUnits="userSpaceOnUse"
       id="clipPath864">
      <g
         id="g870">
        <path
           inkscape:connector-curvature="0"
           id="path866"
           d="m 240.49899,191.96097 a 44.22625,43.816755 64.617209 0 0 -58.54594,-21.16676 44.22625,43.816755 64.617209 0 0 -3.68728,2.02154 L 75.417527,221.61383 A 58.558837,60.196846 64.617209 0 0 72.787808,214.87498 58.558837,60.196846 64.617209 0 0 -6.7018235,187.78375 58.558837,60.196846 64.617209 0 0 -35.978764,266.49352 58.558837,60.196846 64.617209 0 0 -2.5431316e-6,297 58.558837,60.196846 64.617209 0 0 0.88438346,344.18736 58.558837,60.196846 64.617209 0 0 80.370853,371.28629 l 0.01021,-0.005 a 58.558837,60.196846 64.617209 0 0 32.608457,-69.5903 l 110.10471,-52.24103 -0.17111,-0.36066 a 44.22625,43.816755 64.617209 0 0 17.57584,-57.12847 z"
           style="opacity:1;fill:#d0b6ff;fill-opacity:1;stroke:none;stroke-width:1.91979861;stroke-linecap:round;stroke-linejoin:miter;stroke-miterlimit:4;stroke-dasharray:none;stroke-opacity:1" />
        <path
           style="opacity:1;fill:#d0b6ff;fill-opacity:1;stroke:none;stroke-width:1.18476641;stroke-linecap:round;stroke-linejoin:miter;stroke-miterlimit:4;stroke-dasharray:none;stroke-opacity:1"
           d="m 234.16816,133.97583 a 27.040659,27.293371 12.151364 0 0 -20.69291,-32.37049 27.040659,27.293371 12.151364 0 0 -2.56453,-0.39703 L 142.23204,86.420461 a 37.149314,36.138449 12.151364 0 0 1.24672,-4.286567 37.149314,36.138449 12.151364 0 0 -28.71484,-43.144152 37.149314,36.138449 12.151364 0 0 -43.920585,27.511423 37.149314,36.138449 12.151364 0 0 6.137502,28.456405 37.149314,36.138449 12.151364 0 0 -17.308565,23.42499 37.149314,36.138449 12.151364 0 0 28.710394,43.14672 l 0.0066,0.001 a 37.149314,36.138449 12.151364 0 0 42.122254,-21.79596 l 73.52431,15.8312 0.0519,-0.24083 a 27.040659,27.293371 12.151364 0 0 30.08024,-21.34935 z"
           id="path868"
           inkscape:connector-curvature="0" />
      </g>
    </clipPath>
  </defs>
  <sodipodi:namedview
     id="base"
     pagecolor="#ffffff"
     bordercolor="#666666"
     borderopacity="1.0"
     inkscape:pageopacity="0.0"
     inkscape:pageshadow="2"
     inkscape:zoom="0.7"
     inkscape:cx="344.02756"
     inkscape:cy="421.58004"
     inkscape:document-units="px"
     inkscape:current-layer="layer1"
     showgrid="false"
     fit-margin-top="0"
     fit-margin-left="0"
     fit-margin-right="0"
     fit-margin-bottom="0"
     showguides="true"
     inkscape:guide-bbox="true"
     units="px"
     inkscape:window-width="1892"
     inkscape:window-height="1020"
     inkscape:window-x="1934"
     inkscape:window-y="46"
     inkscape:window-maximized="0" />
  <metadata
     id="metadata5">
    <rdf:RDF>
      <cc:Work
         rdf:about="">
        <dc:format>image/svg+xml</dc:format>
        <dc:type
           rdf:resource="http://purl.org/dc/dcmitype/StillImage" />
        <dc:title></dc:title>
      </cc:Work>
    </rdf:RDF>
  </metadata>
  <g
     inkscape:label="Layer 1"
     inkscape:groupmode="layer"
     id="layer1"
     transform="translate(77.863091,-87.506699)">
    <rect
       y="11.359185"
       x="-101.94746"
       height="349.22061"
       width="346.76993"
       id="rect852"
       style="opacity:1;fill:#c4f8ff;fill-opacity:1;stroke:none;stroke-width:2.87226343;stroke-linecap:round;stroke-linejoin:miter;stroke-miterlimit:4;stroke-dasharray:none;stroke-opacity:1"
       inkscape:export-xdpi="96"
       inkscape:export-ydpi="96"
       clip-path="none" />
    <rect
       style="opacity:1;fill:#4bddff;fill-opacity:1;stroke:none;stroke-width:1.74705315;stroke-linecap:round;stroke-linejoin:miter;stroke-miterlimit:4;stroke-dasharray:none;stroke-opacity:1"
       id="rect815"
       width="211.66667"
       height="211.66667"
       x="-2.5431316e-06"
       y="85.333313"
       clip-path="url(#clipPath864)"
       transform="matrix(1.6209163,0,0,1.6209163,-98.271493,-126.95897)"
       inkscape:export-xdpi="96"
       inkscape:export-ydpi="96" />
    <flowRoot
       xml:space="preserve"
       id="flowRoot920"
       style="font-style:normal;font-variant:normal;font-weight:normal;font-stretch:normal;font-size:40px;line-height:1.25;font-family:Convection;-inkscape-font-specification:Convection;letter-spacing:0px;word-spacing:0px;fill:#000000;fill-opacity:1;stroke:none"
       transform="matrix(0.29147738,0,0,0.29147738,3.0780098,-67.510227)"><flowRegion
         id="flowRegion922"><rect
           id="rect924"
           width="1347.5435"
           height="791.95959"
           x="-296.98486"
           y="-18.95269" /></flowRegion><flowPara
         id="flowPara926" /></flowRoot>    <rect
       ry="2.9999995"
       rx="2.9999995"
       y="113.2323"
       x="31.292988"
       height="76.48661"
       width="97.701881"
       id="rect828"
       style="opacity:1;fill:#9955ff;fill-opacity:1;stroke:#303030;stroke-width:4.74470758;stroke-linecap:round;stroke-linejoin:miter;stroke-miterlimit:4;stroke-dasharray:none;stroke-opacity:1" />
    <path
       style="opacity:1;fill:#ffffff;fill-opacity:1;stroke:#303030;stroke-width:4.74470758;stroke-linecap:round;stroke-linejoin:miter;stroke-miterlimit:4;stroke-dasharray:none;stroke-opacity:1"
       id="path840"
       sodipodi:type="arc"
       sodipodi:cx="101.08813"
       sodipodi:cy="136.93626"
       sodipodi:rx="14.172364"
       sodipodi:ry="14.172364"
       sodipodi:start="0"
       sodipodi:end="6.2829933"
       sodipodi:open="true"
       d="m 115.26049,136.93626 a 14.172364,14.172364 0 0 1 -14.17168,14.17237 14.172364,14.172364 0 0 1 -14.173047,-14.17101 14.172364,14.172364 0 0 1 14.170327,-14.17372 14.172364,14.172364 0 0 1 14.1744,14.16964" />
    <path
       d="m 102.3691,134.75867 a 3.4586742,3.4586742 0 0 1 -3.458511,3.45867 3.4586742,3.4586742 0 0 1 -3.45884,-3.45834 3.4586742,3.4586742 0 0 1 3.458176,-3.45901 3.4586742,3.4586742 0 0 1 3.459175,3.45801"
       sodipodi:open="true"
       sodipodi:end="6.2829933"
       sodipodi:start="0"
       sodipodi:ry="3.4586742"
       sodipodi:rx="3.4586742"
       sodipodi:cy="134.75867"
       sodipodi:cx="98.910423"
       sodipodi:type="arc"
       id="path842"
       style="opacity:1;fill:#303030;fill-opacity:1;stroke:none;stroke-width:1.64002502;stroke-linecap:round;stroke-linejoin:miter;stroke-miterlimit:4;stroke-dasharray:none;stroke-opacity:1" />
    <path
       d="m 73.674923,136.4239 a 16.396679,16.396679 0 0 1 -16.395892,16.39668 16.396679,16.396679 0 0 1 -16.397466,-16.3951 16.396679,16.396679 0 0 1 16.394318,-16.39825 16.396679,16.396679 0 0 1 16.39904,16.39353"
       sodipodi:open="true"
       sodipodi:end="6.2829933"
       sodipodi:start="0"
       sodipodi:ry="16.396679"
       sodipodi:rx="16.396679"
       sodipodi:cy="136.4239"
       sodipodi:cx="57.278244"
       sodipodi:type="arc"
       id="path838"
       style="opacity:1;fill:#ffffff;fill-opacity:1;stroke:#303030;stroke-width:4.74470758;stroke-linecap:round;stroke-linejoin:miter;stroke-miterlimit:4;stroke-dasharray:none;stroke-opacity:1" />
    <path
       d="m 65.22039,143.98183 a 3.202476,3.202476 0 0 1 -3.202322,3.20247 3.202476,3.202476 0 0 1 -3.20263,-3.20217 3.202476,3.202476 0 0 1 3.202015,-3.20278 3.202476,3.202476 0 0 1 3.202937,3.20186"
       sodipodi:open="true"
       sodipodi:end="6.2829933"
       sodipodi:start="0"
       sodipodi:ry="3.202476"
       sodipodi:rx="3.202476"
       sodipodi:cy="143.98183"
       sodipodi:cx="62.017914"
       sodipodi:type="arc"
       id="path844"
       style="opacity:1;fill:#303030;fill-opacity:1;stroke:none;stroke-width:4.74470758;stroke-linecap:round;stroke-linejoin:miter;stroke-miterlimit:4;stroke-dasharray:none;stroke-opacity:1" />
    <path
       inkscape:connector-curvature="0"
       id="rect846"
       d="m 67.349072,158.67213 c -0.332513,0 -0.664941,0.0754 -0.919711,0.22631 l -4.070216,2.41258 c -0.50954,0.30175 -0.50954,0.78791 0,1.09024 l 12.579655,7.45635 -12.579655,7.45626 c -0.50954,0.30175 -0.50954,0.78791 0,1.09024 l 4.070216,2.4125 c 0.509539,0.30175 1.329891,0.30175 1.839405,0 l 12.579881,-7.45634 12.579655,7.45634 c 0.50954,0.30175 1.329891,0.30175 1.839406,0 l 4.070216,-2.4125 c 0.509539,-0.30175 0.509539,-0.7879 0,-1.09024 l -12.579881,-7.45626 12.579881,-7.45635 c 0.509539,-0.30175 0.509539,-0.7879 0,-1.09024 l -4.070216,-2.41258 c -0.50954,-0.30175 -1.329883,-0.30175 -1.839406,0 l -12.579655,7.45626 -12.579881,-7.45626 c -0.254728,-0.15088 -0.58724,-0.22631 -0.919694,-0.22631 z"
       style="opacity:1;fill:#303030;fill-opacity:1;stroke:none;stroke-width:0.75035024;stroke-linecap:round;stroke-linejoin:miter;stroke-miterlimit:4;stroke-dasharray:none;stroke-opacity:1" />
    <rect
       ry="14.999999"
       rx="14.999999"
       y="124.39325"
       x="6.372395"
       height="31.337318"
       width="20.007671"
       id="rect865"
       style="opacity:1;fill:#303030;fill-opacity:1;stroke:#303030;stroke-width:4.46428633;stroke-linecap:round;stroke-linejoin:miter;stroke-miterlimit:4;stroke-dasharray:none;stroke-opacity:1" />
    <rect
       style="opacity:1;fill:#303030;fill-opacity:1;stroke:#303030;stroke-width:4.74470758;stroke-linecap:round;stroke-linejoin:miter;stroke-miterlimit:4;stroke-dasharray:none;stroke-opacity:1"
       id="rect867"
       width="21.264441"
       height="33.305748"
       x="133.99678"
       y="120.07846"
       rx="14.999999"
       ry="14.999999" />
    <path
       inkscape:connector-curvature="0"
       id="rect890"
       d="m 27.339987,101.41483 c -5.631136,0.13076 -10.059597,4.76884 -9.929188,10.40001 l 0.466398,20.13935 c 0.08769,3.78664 2.21531,7.02711 5.310976,8.70551 l -0.63563,-27.44691 c -0.06546,-2.82649 2.157403,-5.15475 4.983922,-5.22021 l 104.573675,-2.4218 c 2.82652,-0.0671 5.15478,2.15743 5.22024,4.98392 l 0.6356,27.44691 c 3.01465,-1.81997 4.98997,-5.15541 4.90228,-8.94205 l -0.46638,-20.13935 c -0.1305,-5.63117 -4.76884,-10.059614 -10.39998,-9.92919 z"
       style="opacity:1;fill:#303030;fill-opacity:1;stroke:#303030;stroke-width:4.74470758;stroke-linecap:round;stroke-linejoin:miter;stroke-miterlimit:4;stroke-dasharray:none;stroke-opacity:1" />
    <path
       inkscape:connector-curvature="0"
       d="m 155.50578,133.16849 c 0.0394,0.86342 -0.15708,1.69944 -0.31198,2.54183 -0.0754,0.69151 -0.22924,1.36869 -0.34458,2.05341 -0.0444,0.73426 -0.16336,1.4438 -0.3383,2.15727 -0.15867,0.72169 -0.26981,1.45335 -0.47316,2.16389 -0.2155,0.6605 -0.4144,1.32535 -0.62387,1.98761 -0.22564,0.63955 -0.49579,1.26224 -0.72629,1.89986 -0.22657,0.58925 -0.42874,1.18353 -0.69747,1.7556 -0.23444,0.4937 -0.445,0.99578 -0.73107,1.4624 -0.26202,0.47526 -0.53871,0.94239 -0.86564,1.37565 -0.26261,0.27828 -0.54818,0.53477 -0.8501,0.76863 0,0 -3.54859,1.37204 -3.54859,1.37204 v 0 c 0.34542,-0.15926 0.61607,-0.42748 0.89332,-0.68229 0.41441,-0.32354 0.62396,-0.8439 0.90471,-1.27942 0.23512,-0.49119 0.58087,-0.9304 0.75262,-1.45796 0.15004,-0.28331 0.31885,-0.5859 0.42429,-0.88983 0.0947,-0.27242 0.11408,-0.57333 0.28885,-0.81808 0.20921,-0.63955 0.48473,-1.25646 0.73392,-1.88133 0.17426,-0.67727 0.45338,-1.32662 0.62949,-2.00564 0.25431,-0.68648 0.32798,-1.42577 0.48959,-2.13765 0.0821,-0.35624 0.21625,-0.72253 0.2683,-1.08388 0.0495,-0.34198 0.002,-0.69821 0.0738,-1.03944 0.0914,-0.69655 0.29127,-1.37071 0.35799,-2.07152 0.14065,-0.81808 0.39613,-1.62569 0.30527,-2.46405 0,0 3.38923,-1.72694 3.38923,-1.72694 z"
       id="path910"
       style="opacity:1;fill:#4d4d4d;fill-opacity:1;stroke:none;stroke-width:4.74470758;stroke-linecap:round;stroke-linejoin:miter;stroke-miterlimit:4;stroke-dasharray:none;stroke-opacity:1" />
    <text
       xml:space="preserve"
       style="font-style:normal;font-variant:normal;font-weight:normal;font-stretch:normal;font-size:42.64543152px;line-height:36.25;font-family:Convection;-inkscape-font-specification:Convection;letter-spacing:0px;word-spacing:0px;fill:#303030;fill-opacity:1;stroke:none;stroke-width:0.44422323"
       x="-34.420258"
       y="232.83034"
       id="text844"><tspan
         sodipodi:role="line"
         id="tspan842"
         x="-34.420258"
         y="232.83034"
         style="font-style:normal;font-variant:normal;font-weight:normal;font-stretch:normal;font-family:'simply rounded';-inkscape-font-specification:'simply rounded';fill:#303030;fill-opacity:1;stroke-width:0.44422323">STREAMLIPS</tspan></text>
    <text
       id="text917"
       y="257.88568"
       x="-33.380558"
       style="font-style:normal;font-variant:normal;font-weight:normal;font-stretch:normal;font-size:21.83122063px;line-height:36.25;font-family:Convection;-inkscape-font-specification:Convection;letter-spacing:0px;word-spacing:0px;fill:#303030;fill-opacity:1;stroke:none;stroke-width:0.40441135"
       xml:space="preserve"><tspan
         style="font-style:normal;font-variant:normal;font-weight:normal;font-stretch:normal;font-family:Arial-Rounded;-inkscape-font-specification:Arial-Rounded;fill:#303030;fill-opacity:1;stroke-width:0.40441135"
         y="257.88568"
         x="-33.380558"
         id="tspan915"
         sodipodi:role="line">Lip services for streamers</tspan></text>
  </g>
</svg>
